<?xml version="1.0" encoding="UTF-8"?>
<svg id="Layer_1" data-name="Layer 1" xmlns="http://www.w3.org/2000/svg" xmlns:xlink="http://www.w3.org/1999/xlink" viewBox="0 0 614.07 359.65">
  <defs>
    <style>
      .cls-1 {
        font-family: Tahoma, Tahoma;
        font-size: 31.51px;
      }

      .cls-2 {
        clip-path: url(#clippath);
      }

      .cls-3 {
        fill: none;
      }
    </style>
    <clipPath id="clippath">
      <rect class="cls-3" x="0" y="0" width="614.07" height="359.65"/>
    </clipPath>
  </defs>
  <g class="cls-2">
    <g>
      <path d="M352.14,194.54c0,4.24-.85,7.98-2.56,11.22-1.71,3.25-4,5.92-6.88,8.02-3.41,2.52-7.06,4.3-10.96,5.35-3.9,1.05-8.93,1.58-15.1,1.58h-26v-85.2h24.04c6.45,0,11.29,.2,14.52,.6,3.23,.4,6.32,1.34,9.28,2.83,3.25,1.64,5.62,3.78,7.12,6.43,1.5,2.65,2.25,5.77,2.25,9.35,0,4-1.13,7.58-3.38,10.75-2.25,3.16-5.37,5.64-9.34,7.43v.46c5.4,1.37,9.59,3.88,12.55,7.53,2.97,3.65,4.45,8.2,4.45,13.66m-16.82-38.23c0-2.06-.37-3.84-1.09-5.35-.73-1.51-1.91-2.7-3.53-3.58-1.95-1.03-4.12-1.66-6.51-1.89-2.39-.23-5.7-.34-9.92-.34h-11.57v24.94h13.7c3.77,0,6.55-.18,8.34-.54,1.79-.36,3.63-1.11,5.54-2.26,1.83-1.11,3.12-2.56,3.9-4.35,.77-1.79,1.16-4,1.16-6.64m4.28,38.7c0-3.21-.49-5.86-1.46-7.94-.97-2.08-2.94-3.85-5.91-5.3-1.91-.95-3.99-1.56-6.24-1.83-2.25-.27-5.45-.4-9.59-.4h-13.7v31.54h9.81c5.28,0,9.44-.23,12.48-.69,3.04-.46,5.72-1.43,8.04-2.92,2.27-1.49,3.94-3.18,5-5.08,1.06-1.89,1.58-4.35,1.58-7.37"/>
      <polygon points="364.13 220.7 364.13 135.5 420.91 135.5 420.91 145.58 376.17 145.58 376.17 168.93 417.87 168.93 417.87 179.01 376.17 179.01 376.17 210.63 420.91 210.63 420.91 220.7 364.13 220.7"/>
      <path d="M459.35,222.23c-6.57,0-12.16-.64-16.76-1.91-4.61-1.28-8.93-2.85-12.99-4.72v-14.18h.85c3.97,3.5,8.47,6.22,13.5,8.14,5.03,1.92,9.87,2.88,14.54,2.88,6.65,0,11.68-1.3,15.08-3.92,3.41-2.61,5.11-6.05,5.11-10.32,0-3.4-.89-6.16-2.68-8.29-1.78-2.14-4.62-3.72-8.51-4.75-2.8-.76-5.36-1.39-7.67-1.89-2.31-.49-5.21-1.16-8.7-2-3.12-.76-5.92-1.73-8.4-2.92-2.48-1.18-4.67-2.73-6.57-4.63-1.87-1.87-3.32-4.07-4.35-6.61-1.04-2.53-1.55-5.46-1.55-8.78,0-6.9,2.86-12.69,8.58-17.36,5.72-4.67,13.02-7.01,21.9-7.01,5.07,0,9.87,.48,14.39,1.43,4.52,.96,8.71,2.31,12.56,4.06v13.57h-.91c-2.88-2.48-6.57-4.65-11.07-6.5-4.5-1.85-9.22-2.78-14.17-2.78-5.59,0-10.12,1.23-13.56,3.69-3.45,2.46-5.17,5.69-5.17,9.69,0,3.62,1.01,6.5,3.04,8.63,2.03,2.13,4.97,3.7,8.82,4.69,2.56,.65,5.68,1.38,9.37,2.2,3.69,.82,6.76,1.57,9.19,2.26,6.25,1.79,10.81,4.5,13.69,8.12,2.88,3.62,4.32,8.08,4.32,13.38,0,3.32-.72,6.6-2.16,9.84-1.44,3.24-3.46,5.99-6.05,8.23-2.92,2.48-6.21,4.39-9.89,5.72-3.67,1.34-8.27,2-13.78,2"/>
      <polygon points="524.73 220.7 524.73 145.58 494.28 145.58 494.28 135.5 567.22 135.5 567.22 145.58 536.77 145.58 536.77 220.7 524.73 220.7"/>
      <g>
        <path d="M245.42,220.82l-19.97-11.51h-52.14l-19.96,11.51c19.1,33.19,76.22,87.54,138.1,92.24-21.56-12.08-55.88-55.48-46.03-92.24"/>
        <path d="M202.67,158.46h0l-.39-.68,.39,.68Zm56.84-109.03c.32,24.72-20.09,76.13-56.86,85.98v23.04s26.08,45.16,26.08,45.16l19.95,11.54c19.19-33.14,37.7-109.77,10.83-165.72"/>
        <path d="M170.03,203.62h0l-.39,.68,.39-.68Zm26.08-68.2c-38.29-.05-113.92,22.24-148.93,73.49,21.25-12.64,75.98-20.67,102.89,6.25l19.95-11.54,26.07-45.15v-23.05Z"/>
        <path d="M187.16,190.46c0-6.75,5.47-12.21,12.22-12.21s12.22,5.47,12.22,12.21-5.47,12.22-12.22,12.22-12.22-5.45-12.22-12.22"/>
      </g>
      <text class="cls-1" transform="translate(368.85 254.05)"><tspan x="0" y="0">CLUJ-NAPOCA</tspan></text>
    </g>
  </g>
</svg>