<?xml version="1.0" encoding="UTF-8"?>
<svg id="Layer_2" data-name="Layer 2" xmlns="http://www.w3.org/2000/svg" viewBox="0 0 5106.95 627.69">
  <defs>
    <style>
      .cls-1 {
        fill: #4d2c8c;
      }

      .cls-2 {
        fill: #ea44c3;
      }

      .cls-3 {
        fill: #db0fb4;
      }

      .cls-4 {
        fill: none;
      }
    </style>
  </defs>
  <g id="Layer_1-2" data-name="Layer 1">
    <g>
      <g>
        <path class="cls-1" d="M83.21,35.31c-.12,.41-.24,.8-.35,1.19-.18,.61-.36,1.22-.55,1.83-.17,.6-.34,1.16-.5,1.7h75.64l-5.65,18.97h48.29l-41.57,139.63h-48.28l-5.65,18.97H24.39L0,299.51H98.56l-18.59,62.43H40.33l-28.19,94.67H81.17c-5.37,18.03-10.76,36.14-16.16,54.28-1.35,4.53-2.7,9.07-4.05,13.6-2.3,7.74-4.61,15.49-6.91,23.22-1.07,3.59-2.14,7.18-3.21,10.77-1.68,5.66-3.36,11.32-5.04,16.97-.99,3.3-1.97,6.6-2.95,9.9-.7,2.34-1.39,4.68-2.09,7.02-3.54,11.88-7.05,23.67-10.52,35.31h498.88c3.48-11.68,6.98-23.47,10.51-35.31,1.98-6.67,3.97-13.34,5.96-20.02,1.84-6.2,3.69-12.4,5.54-18.61,.92-3.1,1.84-6.2,2.77-9.31,2.77-9.31,5.54-18.61,8.31-27.9,2.76-9.25,5.51-18.5,8.26-27.75,.92-3.07,1.83-6.13,2.74-9.19H244.11c3.5-11.77,7.01-23.54,10.52-35.32,5.49-18.43,10.98-36.9,16.49-55.4,3.67-12.33,7.34-24.67,11.02-37.01,16.7-56.12,33.46-112.38,50.15-168.45h329.1c3.47-11.65,6.98-23.44,10.51-35.32,1.29-4.33,2.58-8.68,3.89-13.05,1.19-4.01,2.39-8.03,3.59-12.06,2.25-7.59,4.53-15.22,6.81-22.88,2.59-8.71,5.18-17.41,7.77-26.09,2.01-6.77,4.03-13.55,6.04-20.3,1.69-5.69,3.38-11.35,5.06-16.99,.14-.47,.28-.94,.42-1.41H83.21Zm120.93,360.34h37.46l-10.04,33.72h-37.46l10.04-33.72Zm-112.72-135.08l10.04-33.71h37.46l-10.04,33.71h-37.46Zm-22.17,168.8l20.07-67.43h74.93l-20.08,67.43H69.25Zm27.9,73.99h74.92l-20.07,67.43H77.07l20.08-67.43Zm154.56,37.95h37.46l-10.03,33.71h-37.46l10.03-33.71Zm32.77-393.22h-74.93l20.08-67.43h74.92l-20.07,67.43Zm77.99-89.09h37.46l-10.04,33.72h-37.46l10.04-33.72Z"/>
        <path class="cls-2" d="M93.73,0c-.84,2.82-6.79,22.76-10.52,35.31-.12,.41-.24,.8-.35,1.19-.18,.61-.36,1.22-.55,1.83-.17,.6-.34,1.16-.5,1.7h75.64l-5.65,18.97h48.29l-41.57,139.63h-48.28l-5.65,18.97H24.39L0,299.51H98.56l-18.59,62.43H40.33l-28.19,94.67H81.17c-5.37,18.03-10.76,36.14-16.16,54.28-1.35,4.53-2.7,9.07-4.05,13.6-2.3,7.74-4.61,15.49-6.91,23.22-1.07,3.59-2.14,7.18-3.21,10.77-1.68,5.66-3.36,11.32-5.04,16.97-.99,3.3-1.97,6.6-2.95,9.9-.7,2.34-1.39,4.68-2.09,7.02h498.87c1.98-6.67,3.97-13.34,5.96-20.02,1.84-6.2,3.69-12.4,5.54-18.61,.92-3.1,1.84-6.2,2.77-9.31,2.77-9.31,5.54-18.61,8.31-27.9,2.76-9.25,5.51-18.5,8.26-27.75,.91-3.07,1.82-6.13,2.73-9.19h.01c4.63-15.55,8.47-28.46,10.51-35.32H254.63c5.49-18.43,10.98-36.9,16.49-55.4,3.67-12.33,7.34-24.67,11.02-37.01,16.7-56.12,33.46-112.38,50.15-168.45,3.51-11.78,7.02-23.56,10.52-35.32h329.09c1.29-4.33,2.58-8.68,3.89-13.05,1.19-4.01,2.39-8.03,3.59-12.06,2.25-7.59,4.53-15.22,6.81-22.88,2.59-8.71,5.18-17.41,7.77-26.09,2.01-6.77,4.03-13.55,6.04-20.3,1.69-5.69,3.38-11.35,5.06-16.99,.14-.47,.28-.94,.42-1.41,3.54-11.89,7.05-23.69,10.51-35.31H93.73Zm-2.31,260.57l10.04-33.71h37.46l-10.04,33.71h-37.46Zm-22.17,168.8l20.07-67.43h74.93l-20.08,67.43H69.25Zm82.75,141.42H77.07l20.08-67.43h74.92l-20.07,67.43Zm79.56-141.42h-37.46l10.04-33.72h37.46l-10.04,33.72Zm47.58,145.65h-37.46l10.03-33.71h37.46l-10.03,33.71Zm5.34-426.93h-74.93l20.08-67.43h74.92l-20.07,67.43Zm105.41-55.37h-37.46l10.04-33.72h37.46l-10.04,33.72Z"/>
      </g>
      <g>
        <path class="cls-1" d="M4871.46,35.31s-.02,.07-.03,.1l-.59,1.98-.93,3.11c-.41,1.4-.83,2.81-1.24,4.19-.31,1.03-.61,2.05-.9,3.03-.19,.65-.38,1.28-.56,1.89-.73,2.44-1.34,4.5-1.73,5.8h-30.55c1.09-3.67,3.88-13.03,5.99-20.1h-48.67c-19.63,65.94-39.27,131.9-58.91,197.85-9.81,32.98-19.63,65.95-29.45,98.92-6.31,21.2-12.62,42.4-18.93,63.59-3.5,11.78-7.01,23.55-10.51,35.32-71.61-132.88-145.93-270.81-211.98-393.39-1.25,0-152.35-1.93-165.4-2.08h-.26c-3.11,12.14-72.62,248.05-126.61,430.53-.42,1.44-.85,2.87-1.27,4.3-.44,1.48-.87,2.95-1.31,4.42-1.41,4.74-2.81,9.49-4.21,14.22-.84,2.81-1.67,5.61-2.49,8.4-.55,1.85-1.1,3.69-1.64,5.54-1.22,4.1-2.43,8.2-3.64,12.29-.5,1.68-1,3.36-1.49,5.04-.99,3.35-1.97,6.66-2.95,9.94-2.42,8.2-4.79,16.18-7.09,23.91-.73,2.46-1.46,4.91-2.18,7.35-.36,1.21-.71,2.41-1.07,3.61-.25,.8-.48,1.59-.71,2.39-.47,1.57-.94,3.14-1.4,4.71-.89,3.03-1.78,6.01-2.65,8.94-.91,3.06-1.82,6.11-2.72,9.16-4.11,13.82-7.84,26.38-11.13,37.41h164.55c3.5-11.77,7.01-23.53,10.51-35.31,25.74-86.46,51.53-173.09,77.32-259.71,4.87-16.4,9.76-32.79,14.64-49.18,4.88-16.4,9.76-32.79,14.64-49.18,71.67,132.99,146,270.93,211.98,393.38h254.86c3.46-11.61,6.97-23.41,10.51-35.31,5.4-18.14,10.87-36.53,16.34-54.89,1.32-4.42,2.64-8.85,3.95-13.26,4.07-13.66,8.12-27.27,12.13-40.72h49.32l14.46-48.56h-66.28l3.3-11.1h-64.74l45.44-152.59h64.73l4.13-13.87h91.19c3.3-11.1,6.62-22.19,9.91-33.3h-37.24l4.54-15.26h-36.99l38.41-129.01h49.33c.47-1.57,.94-3.16,1.42-4.77,.07-.25,.15-.5,.23-.76,.54-1.82,1.09-3.67,1.65-5.55,3.06-10.29,6.31-21.2,9.5-31.93,.15-.5,.3-.99,.45-1.49h-224.98Zm-576.98,436.46h-61.09l16.37-54.98h61.09l-16.37,54.98Zm506.14-165.2h30.54l-8.18,27.49h-30.55l8.19-27.49Zm-58.09,195.12h61.09l-16.37,54.98h-61.1l16.38-54.98Zm-75.55-53h30.55l-8.19,27.49h-30.55l8.19-27.49Zm303.52-251h-30.55l8.18-27.49h30.55l-8.18,27.49Zm14.81-101.04h-61.1l16.37-54.99h61.1l-16.37,54.99Z"/>
        <path class="cls-2" d="M4802.76,0c-3.5,11.77-7.01,23.54-10.51,35.31-19.63,65.94-39.27,131.9-58.91,197.85-9.81,32.98-19.63,65.95-29.45,98.92-6.31,21.2-12.62,42.4-18.93,63.59-71.6-132.88-145.92-270.81-211.97-393.38l-165.67-2.09c-3.35,11.59-6.77,23.37-10.25,35.32-38.29,131.68-83.39,283.92-126.87,430.53-.42,1.44-.85,2.87-1.27,4.3-.44,1.48-.87,2.95-1.31,4.42-1.41,4.74-2.81,9.49-4.21,14.22-.84,2.81-1.67,5.61-2.49,8.4-.55,1.85-1.1,3.69-1.64,5.54-1.22,4.1-2.43,8.2-3.64,12.29-.5,1.68-1,3.36-1.49,5.04-.99,3.32-1.97,6.63-2.95,9.94-2.38,8-4.74,15.97-7.09,23.91-.73,2.46-1.46,4.91-2.18,7.35-.36,1.21-.71,2.41-1.07,3.61-.25,.8-.48,1.59-.71,2.39-.47,1.57-.94,3.14-1.4,4.71-.89,2.99-1.77,5.97-2.65,8.94-.91,3.06-1.82,6.11-2.72,9.16-.21,.7-.41,1.4-.62,2.1h164.55c25.74-86.46,51.53-173.09,77.32-259.71,4.87-16.4,9.76-32.79,14.64-49.18,4.88-16.4,9.76-32.79,14.64-49.18,3.51-11.78,7.01-23.55,10.52-35.32,71.66,132.99,145.99,270.94,211.97,393.39h254.86c5.4-18.14,10.87-36.53,16.34-54.89,1.32-4.42,2.64-8.85,3.95-13.26,4.07-13.66,8.12-27.27,12.13-40.72h49.32l14.46-48.56h-66.28l3.3-11.1h-64.74l45.44-152.59h64.73l4.13-13.87h91.19c3.3-11.1,6.62-22.19,9.91-33.3h-37.24l4.54-15.26h-36.99l38.41-129.01h49.33c.47-1.57,.94-3.16,1.42-4.77,.07-.25,.15-.5,.23-.76,.54-1.82,1.09-3.67,1.65-5.55,3.06-10.29,6.31-21.2,9.5-31.93,.15-.5,.3-1,.44-1.49,3.71-12.45,7.34-24.63,10.52-35.31h-304.19Zm-508.28,471.77h-61.09l16.37-54.98h61.09l-16.37,54.98Zm394.86,4.41h-30.55l8.19-27.49h30.55l-8.19,27.49Zm97.91,80.49h-61.1l16.38-54.98h61.09l-16.37,54.98Zm35.73-222.61h-30.55l8.19-27.49h30.54l-8.18,27.49Zm147.52-136.37h-30.55l8.18-27.49h30.55l-8.18,27.49Zm14.81-101.04h-61.1l16.37-54.99h61.1l-16.37,54.99Zm-113.88-61.24l-.59,1.98-.93,3.11c-.41,1.4-.83,2.81-1.24,4.19-.31,1.03-.61,2.05-.9,3.03-.19,.65-.38,1.28-.56,1.89-.73,2.44-1.34,4.5-1.73,5.8h-30.55c1.09-3.67,3.88-13.03,5.99-20.1,.94-3.16,1.74-5.86,2.2-7.4h30.54c-.45,1.52-1.26,4.22-2.2,7.4,0,.03-.02,.07-.03,.1Z"/>
      </g>
      <g>
        <path class="cls-1" d="M2017.69,109.36l-60.24-74.05h-493.63c-14.69,49.34-29.38,98.69-44.08,148.05-18.54,62.28-37.09,124.58-55.63,186.87-10.86,36.45-21.71,72.91-32.57,109.37-11.19,37.59-22.38,75.19-33.57,112.77-3.51,11.77-7.02,23.54-10.52,35.31h493.64c52-36.9,156.65-111.17,208.64-148.08l10.51-35.32h0l77.66-260.87-60.22-74.05Zm-511.08,334.93h0s.01-.01,.01-.01c3.12-10.47,6.23-20.95,9.35-31.43,10.32-34.66,20.66-69.39,31-104.12,2.73-9.17,5.46-18.33,8.19-27.5,6.48-21.76,12.95-43.51,19.42-65.24,3.24-10.87,6.47-21.73,9.7-32.58h246.81l60.22,74.05c-3.89,13.07-7.85,26.37-11.83,39.73-3.31,11.13-6.64,22.29-9.94,33.39-.66,2.22-1.32,4.44-1.98,6.65l-3.94,13.24-3.86,12.99s-.03,.08-.04,.12c-.01,.03-.02,.06-.03,.09-.04,.14-.08,.28-.12,.42l-.68,2.26-.32,1.07c-.1,.35-.21,.71-.32,1.08h0c-.03,.13-.06,.25-.1,.37l-.11,.37-.29,.99h-.01c-4.01,13.48-8.71,29.29-10.5,35.31l-104.32,74.06h-246.81l10.51-35.31Zm-75.31,42.21h37.46l-10.04,33.71h-37.46l10.04-33.71Zm497.43-192.21l20.08-67.43h74.92l-20.07,67.43h-74.93Z"/>
        <g>
          <path class="cls-4" d="M1753.42,444.28c6.04-4.46,20.93-14.96,37.46-26.59l-37.46,26.6h-246.81c3.12-10.48,6.24-20.96,9.36-31.44-3.12,10.48-6.23,20.96-9.35,31.43h246.8Z"/>
          <path class="cls-4" d="M1858.24,368.51h0s-.22,.73-.22,.73l-.29,.99h-.01l-3.98,2.84c2.8-2.06,3.83-3.06,4.49-4.56Z"/>
          <path class="cls-4" d="M1858.25,368.5c.22-.73,.43-1.44,.64-2.15l-.62,2.11s0,.03-.02,.04Z"/>
          <path class="cls-4" d="M1869.54,330.58c3.3-11.1,6.63-22.26,9.94-33.39l-9.94,33.39Z"/>
          <path class="cls-4" d="M1901.83,222.14l-10.52,35.32-60.22-74.05h-246.81c3.51-11.78,7.01-23.55,10.51-35.31h246.81l60.23,74.04Z"/>
          <path class="cls-2" d="M2028.21,74.04L1967.97,0h-493.64c-3.5,11.77-7.01,23.54-10.51,35.31-14.69,49.34-29.38,98.69-44.08,148.05-18.54,62.28-37.09,124.58-55.63,186.87-10.86,36.45-21.71,72.91-32.57,109.37-11.19,37.59-22.38,75.19-33.57,112.77h493.63c52-36.91,156.65-111.18,208.64-148.09h0l88.18-296.18-60.22-74.06Zm-569.49,446.17h-37.46l10.04-33.71h37.46l-10.04,33.71Zm432.59-262.75c-3.89,13.07-7.85,26.37-11.83,39.73-3.31,11.13-6.64,22.29-9.94,33.39-.66,2.22-1.32,4.44-1.98,6.65l-3.94,13.24-3.86,12.99s-.03,.08-.04,.12c-.01,.03-.02,.06-.03,.09-.04,.14-.08,.28-.12,.42-.57,2.04-.85,3.33-1.3,4.37,0,.01,0,.03-.02,.04h0c-.66,1.51-1.69,2.51-4.49,4.57-.71,.5-1.53,1.09-2.48,1.76-8.36,6.3-34.79,24.85-58.47,41.51-.65,.45-1.28,.9-1.92,1.35-.52,.36-1.03,.73-1.54,1.09-5.7,4.01-11.18,7.86-16.12,11.36-1.96,1.38-3.84,2.71-5.61,3.97-1.01,.71-1.99,1.41-2.93,2.07-.38,.27-.75,.54-1.11,.79-4.38,3.12-7.89,5.64-10.15,7.31h-246.81c3.12-10.47,6.24-20.95,9.36-31.43,10.32-34.66,20.66-69.39,31-104.12,2.73-9.17,5.46-18.33,8.19-27.5,6.48-21.76,12.95-43.51,19.42-65.24,3.24-10.87,6.47-21.73,9.7-32.58,3.51-11.78,7.01-23.55,10.51-35.31h246.81l60.23,74.04-10.52,35.32Zm37.42,36.83l20.08-67.43h74.92l-20.07,67.43h-74.93Z"/>
        </g>
      </g>
      <g>
        <g>
          <path class="cls-1" d="M1249.19,35.31h-329.1c-52.06,37.02-156.59,111.12-208.62,148.09-25.89,86.96-51.79,173.93-77.68,260.88-3.5,11.78-7.01,23.55-10.51,35.32l120.45,148.08h329.1c52-36.91,156.65-111.18,208.64-148.08,3.5-11.77,7.01-23.55,10.51-35.32,25.89-86.91,51.78-173.92,77.67-260.87l-120.46-148.1Zm-303.71,40.55h37.47l-10.04,33.71h-37.46l10.03-33.71Zm-125.1,294.37c6.39-21.47,12.8-42.99,19.21-64.52,4.63-15.52,9.25-31.04,13.87-46.55v-.02c.16-.56,.33-1.12,.5-1.68l104.31-74.05h164.56l60.22,74.05c-11.18,37.54-22.39,75.23-33.57,112.76,0,0-.01,0-.01,.01h0c-4.61,15.56-8.46,28.45-10.51,35.31l-104.32,74.06h-164.55l-60.22-74.06,10.51-35.31Zm-59.98,75.65h74.92l-20.08,67.43h-74.92l20.08-67.43Z"/>
          <polygon class="cls-1" points="1177.14 553.64 1177.14 553.64 1177.14 553.64 1177.14 553.64"/>
          <polygon class="cls-1" points="683.5 553.64 683.5 553.64 683.5 553.64 683.5 553.64"/>
        </g>
        <g>
          <path class="cls-4" d="M848.25,276.62l5.21-17.48v.02c-4.62,15.51-9.24,31.03-13.87,46.55,2.89-9.69,5.78-19.39,8.66-29.09Z"/>
          <path class="cls-4" d="M937.83,444.29h-57.23c.23-.17,26.07-.09,57.23,0Z"/>
          <path class="cls-4" d="M1035.65,444.29c6.01-.07,9.66-.17,9.96-.32l-.45,.32h-9.51Z"/>
          <path class="cls-4" d="M1047.12,442.89c3.18-2.26,7-4.97,11.06-7.85l-11.06,7.85Z"/>
          <path class="cls-4" d="M1144.95,373.44c1.51-1.07,3.02-2.15,4.52-3.21h0s-4.52,3.21-4.52,3.21Z"/>
          <path class="cls-4" d="M1193.56,222.14l-10.51,35.32-60.22-74.05h-164.56l-104.31,74.05c3.51-11.78,7.01-23.56,10.51-35.32l104.31-74.04h164.56l60.22,74.04Z"/>
          <path class="cls-2" d="M1259.7,0h-329.09c-52.01,36.91-156.65,111.19-208.63,148.1-3.5,11.77-7.01,23.53-10.51,35.3-25.89,86.96-51.79,173.93-77.68,260.88l120.46,148.09h329.09c52-36.91,156.65-111.19,208.64-148.09,25.89-86.91,51.78-173.92,77.67-260.87,3.51-11.77,7.02-23.54,10.52-35.31L1259.7,0Zm-276.75,75.86l-10.04,33.71h-37.46l10.03-33.71h37.47Zm-167.71,437.45h-74.92l20.08-67.43h74.92l-20.08,67.43Zm367.81-255.85c-11.18,37.54-22.39,75.23-33.57,112.76,0,0-.01,0-.01,.01-1.5,1.06-3.01,2.14-4.52,3.21-7.57,5.38-15.25,10.83-22.97,16.31l-9.26,6.57-18.51,13.14-9.19,6.53-9.12,6.47-3.93,2.79-4.05,2.88c-1.87,1.32-3.75,2.66-5.61,3.98l-4.13,2.93c-4.06,2.88-7.88,5.59-11.06,7.85-.51,.36-1.01,.72-1.49,1.06,0,0-.01,0-.02,.02-.3,.15-3.95,.25-9.96,.32-19.07,.22-61.97,.11-97.82,0-31.16-.09-57-.17-57.23-.01l-60.22-74.05c6.39-21.47,12.8-42.99,19.21-64.52,2.89-9.69,5.78-19.39,8.66-29.09,1.74-5.82,3.47-11.64,5.21-17.46v-.02c.16-.56,.33-1.12,.5-1.68,3.51-11.78,7.01-23.56,10.51-35.32l104.31-74.04h164.56l60.23,74.04-10.52,35.32Z"/>
          <polygon class="cls-3" points="1187.66 518.33 1187.66 518.33 1187.66 518.33 1187.66 518.33"/>
          <polygon class="cls-3" points="694.02 518.33 694.02 518.33 694.02 518.33 694.02 518.33"/>
        </g>
      </g>
      <g>
        <g>
          <polygon class="cls-1" points="3320.59 565.35 3372.68 592.37 3362.17 627.69 3320.59 565.35"/>
          <path class="cls-1" d="M3434.22,109.36l-60.24-74.05h-493.64l-176.36,592.37h164.54c3.5-11.76,7-23.53,10.51-35.31,1.72-5.76,3.43-11.53,5.15-17.3,6.24-20.98,12.5-42,18.77-63.05,5.74-19.29,11.49-38.6,17.24-57.9,5.74-19.28,11.48-38.55,17.21-57.79h127.29l132.93,231.35h164.55c-6.1-10.61-12.96-22.55-20.29-35.31-4.22-7.35-8.6-14.97-13.08-22.76-37-64.39-80.78-140.59-99.57-173.28h37.26l208.65-148.1c2.88-9.66,6.69-22.46,10.51-35.31h.01c.75-2.52,1.53-5.14,2.32-7.82,.35-1.18,.7-2.36,1.06-3.54,1.75-5.88,3.58-12.02,5.4-18.15l-60.22-74.05Zm-567.13,311.84l-8.18,27.49h-30.55l8.18-27.49h30.55Zm236.45-379.54h30.55l-8.19,27.49h-30.55l8.19-27.49Zm123.42,257.08h-61.1c.35-1.19,7-23.53,11.68-39.24,.23-.77,.46-1.53,.68-2.27,.69-2.33,1.3-4.38,1.8-6.06,.18-.6,.35-1.17,.51-1.71,.16-.53,.28-.94,.37-1.23h-199.41c2.95-9.9,6.77-22.75,10.51-35.31h.01c.73-2.44,1.46-4.89,2.18-7.35,2.2-7.36,4.4-14.76,6.6-22.16h246.82c2.99,3.67,7.43,9.14,12,14.76h.01c5.33,6.56,10.84,13.33,14.36,17.65l-39.35,27.93h8.7l-16.37,54.99Z"/>
        </g>
        <g>
          <path class="cls-4" d="M2992,212.92l2.19-7.35c-.72,2.46-1.45,4.91-2.18,7.35h-.01Z"/>
          <path class="cls-4" d="M2994.19,205.57l6.6-22.16c-2.2,7.4-4.4,14.8-6.6,22.16Z"/>
          <path class="cls-4" d="M3284.49,180.51l-24.87,17.66h-.01c-4.57-5.62-9.01-11.09-12-14.76h-246.82c3.52-11.83,7.04-23.66,10.51-35.31h246.83l26.36,32.41Z"/>
          <path class="cls-2" d="M3444.73,74.04L3384.49,0h-493.63l-10.51,35.31-165.85,557.06h164.54c1.71-5.76,3.43-11.53,5.14-17.3,6.24-20.98,12.5-42,18.77-63.05,5.74-19.29,11.49-38.6,17.24-57.9,5.74-19.28,11.48-38.55,17.21-57.79,3.5-11.79,7.01-23.56,10.51-35.32h127.29l132.93,231.36h164.56c-12.43-21.63-71.85-125.01-112.65-196.04-7.54-13.12-14.44-25.13-20.3-35.32h37.27s206.55-146.57,208.64-148.09h.01c.75-2.52,1.53-5.14,2.32-7.82,.35-1.18,.7-2.36,1.06-3.54,1.75-5.88,3.58-12.02,5.4-18.15,3.74-12.57,7.48-25.11,10.51-35.31l-60.22-74.06Zm-585.82,374.65h-30.55l8.18-27.49h30.55l-8.18,27.49ZM3134.09,41.66l-8.19,27.49h-30.55l8.19-27.49h30.55Zm92.87,257.08h-61.1c.35-1.19,7-23.53,11.68-39.24,.23-.77,.46-1.53,.68-2.27,.69-2.33,1.3-4.38,1.8-6.06,.18-.6,.35-1.17,.51-1.71,.16-.53,.28-.94,.37-1.23,.83-2.79,1.33-4.48,1.33-4.48h61.1l-16.37,54.99Zm32.66-100.57h-.01l-20.78,14.75h-246.82c.73-2.44,1.46-4.89,2.18-7.35,2.2-7.36,4.4-14.76,6.6-22.16,3.52-11.83,7.04-23.66,10.51-35.31h246.83l26.36,32.41-24.87,17.66Z"/>
        </g>
      </g>
      <g>
        <path class="cls-1" d="M4082.25,35.31c-24.06,80.8-48.14,161.68-72.19,242.45-7.44,25-14.88,50-22.32,74.99-1.73,5.83-3.47,11.66-5.2,17.48h0c-3.5,11.77-7,23.55-10.51,35.32l-104.32,74.04h-164.54l-60.23-74.05c3.5-11.77,7.01-23.54,10.51-35.31,5.68-19.08,11.36-38.16,17.04-57.24,9.19-30.85,18.37-61.71,27.56-92.57,18.37-61.71,36.74-123.42,55.11-185.11h-164.54c-40.57,136.31-81.17,272.65-121.76,408.96-3.51,11.78-7.01,23.55-10.52,35.32l120.46,148.09h329.1l208.63-148.09c3.5-11.77,7.01-23.55,10.51-35.32h0c10.14-34.08,20.29-68.16,30.44-102.24,20.29-68.16,40.58-136.32,60.88-204.48,10.14-34.08,20.29-68.16,30.43-102.24h-164.54Zm-114.06,385.89h61.1l-16.37,54.98h-61.1l16.37-54.98Zm-407.91-101.15h61.09l-16.37,54.99h-61.1l16.38-54.99Zm619.92-250.9h-30.55l8.19-27.49h30.55l-8.19,27.49Z"/>
        <path class="cls-2" d="M4092.76,0c-3.5,11.77-7.01,23.54-10.51,35.31-24.06,80.8-48.14,161.68-72.19,242.45-7.44,25-14.88,50-22.32,74.99-1.73,5.83-3.47,11.66-5.2,17.48h0c-1.57,1.13-104.29,74.02-104.31,74.04h-164.55l-60.23-74.04c5.68-19.08,11.36-38.16,17.04-57.24,9.19-30.85,18.37-61.71,27.56-92.57,18.37-61.71,36.74-123.42,55.11-185.11,3.51-11.77,7.01-23.54,10.52-35.31h-164.55c-3.5,11.77-7.01,23.54-10.51,35.31-40.57,136.31-81.17,272.65-121.76,408.96l120.46,148.1h329.09l208.63-148.1h0c10.14-34.08,20.29-68.16,30.44-102.24,20.29-68.16,40.58-136.32,60.88-204.48,10.14-34.08,20.29-68.16,30.43-102.24,3.51-11.77,7.02-23.54,10.52-35.31h-164.55Zm-487.76,375.04h-61.1l16.38-54.99h61.09l-16.37,54.99Zm407.92,101.14h-61.1l16.37-54.98h61.1l-16.37,54.98Zm167.28-407.03h-30.55l8.19-27.49h30.55l-8.19,27.49Z"/>
      </g>
      <g>
        <path class="cls-1" d="M2172.08,35.31c-36.73,123.38-73.5,246.85-110.24,370.26-11.19,37.6-22.39,75.2-33.58,112.79-7.34,24.67-14.69,49.34-22.03,74.01-3.5,11.77-7.01,23.54-10.51,35.31h658.19c3.47-11.67,6.98-23.45,10.51-35.31,3.83-12.86,7.67-25.75,11.5-38.63,1.74-5.83,3.48-11.67,5.21-17.5,1.21-4.05,2.42-8.1,3.62-12.15,1.47-4.92,2.93-9.84,4.4-14.76,2.05-6.89,4.09-13.78,6.14-20.66,.91-3.03,1.81-6.06,2.71-9.08h-493.64l10.51-35.32h.01c.25-.84,.5-1.67,.74-2.51,.25-.85,.5-1.69,.76-2.54,.25-.85,.5-1.7,.76-2.56,.51-1.71,1.02-3.43,1.54-5.16,.77-2.61,1.55-5.23,2.34-7.87,1.57-5.29,3.17-10.64,4.76-15.99,.53-1.78,1.06-3.57,1.59-5.35,.53-1.79,1.06-3.57,1.59-5.34,.06-.21,.12-.41,.19-.62h493.64c3.46-11.63,6.97-23.42,10.51-35.32,3.82-12.84,7.65-25.7,11.48-38.57,2.78-9.33,5.56-18.67,8.34-28.01,1.16-3.88,2.31-7.76,3.47-11.64,1.61-5.4,3.21-10.8,4.82-16.2,.91-3.07,1.82-6.13,2.74-9.2,.91-3.06,1.82-6.11,2.73-9.15h-493.64c3.11-10.42,6.8-22.82,10.51-35.32,.93-3.11,1.9-6.38,2.91-9.77,.2-.67,.4-1.35,.61-2.04,1.7-5.72,3.49-11.71,5.27-17.7h493.64c3.47-11.67,6.98-23.46,10.51-35.32,1.06-3.55,2.12-7.11,3.18-10.68,1.67-5.63,3.35-11.27,5.04-16.91,.17-.56,.33-1.13,.5-1.69,1.67-5.62,3.35-11.25,5.03-16.88,6.61-22.19,13.26-44.54,19.83-66.62h-658.19Zm413.93,490.83h61.09l-16.37,54.99h-61.09l16.37-54.99Zm-360.49-218.11h-30.55l8.19-27.49h30.55l-8.19,27.49Zm446.65-245.92h30.55l-8.19,27.5h-30.55l8.19-27.5Z"/>
        <path class="cls-2" d="M2182.59,0c-3.5,11.77-7.01,23.54-10.51,35.31-36.73,123.38-73.5,246.85-110.24,370.26-11.19,37.6-22.39,75.2-33.58,112.79-7.34,24.67-14.69,49.34-22.03,74.01h658.19c3.83-12.86,7.67-25.75,11.5-38.63,1.74-5.83,3.48-11.67,5.21-17.5,1.21-4.05,2.42-8.1,3.62-12.15,1.47-4.92,2.93-9.84,4.4-14.76,2.05-6.89,4.09-13.78,6.14-20.66,.9-3.03,1.8-6.06,2.7-9.08h0c4.63-15.55,8.47-28.46,10.51-35.32h-493.64c.25-.84,.5-1.67,.75-2.51,.25-.85,.5-1.69,.76-2.54,.25-.85,.5-1.7,.76-2.56,.51-1.71,1.02-3.43,1.54-5.16,.77-2.61,1.55-5.23,2.34-7.87,1.57-5.29,3.17-10.64,4.76-15.99,.53-1.78,1.06-3.57,1.59-5.35,.53-1.79,1.06-3.57,1.59-5.34,.06-.21,.12-.41,.19-.62,3.64-12.24,7.22-24.26,10.51-35.32h493.64c3.82-12.84,7.65-25.7,11.48-38.57,2.78-9.33,5.56-18.67,8.34-28.01,1.16-3.88,2.31-7.76,3.47-11.64,1.61-5.4,3.21-10.8,4.82-16.2,.91-3.07,1.82-6.13,2.74-9.2,.91-3.05,1.81-6.1,2.72-9.15h.01l10.51-35.32h-493.64c.93-3.11,1.9-6.38,2.91-9.77,.2-.67,.4-1.35,.61-2.04,1.7-5.72,3.49-11.71,5.27-17.7,3.76-12.63,7.52-25.25,10.51-35.32h493.64c1.06-3.55,2.12-7.11,3.18-10.68,1.67-5.63,3.35-11.27,5.04-16.91,.17-.56,.33-1.13,.5-1.69,1.67-5.62,3.35-11.25,5.03-16.88,6.61-22.19,13.26-44.54,19.83-66.62,3.54-11.87,7.04-23.66,10.51-35.31h-658.19Zm448.14,581.13h-61.09l16.37-54.99h61.09l-16.37,54.99Zm-405.21-273.1h-30.55l8.19-27.49h30.55l-8.19,27.49Zm469.01-218.42h-30.55l8.19-27.5h30.55l-8.19,27.5Z"/>
      </g>
    </g>
  </g>
</svg>