<svg xmlns="http://www.w3.org/2000/svg" width="1737.966" height="686.61" viewBox="0 0 1737.966 686.61">
  <g id="Group_19981" data-name="Group 19981" transform="translate(-267 3151)">
    <g id="Group_3" data-name="Group 3" transform="translate(17184 16041.002)" opacity="0">
      <rect id="Rectangle_2741" data-name="Rectangle 2741" width="1737.694" height="149.912" transform="translate(-16916.729 -19191.717)" fill="#ff1b3a" opacity="0.845"/>
      <rect id="Rectangle_2742" data-name="Rectangle 2742" width="149.912" height="686.325" transform="translate(-16917 -19191.717)" fill="#ff1b3a" opacity="0.797"/>
      <rect id="Rectangle_2743" data-name="Rectangle 2743" width="1737.694" height="149.912" transform="translate(-16917 -18655.59)" fill="#ff1b3a" opacity="0.845"/>
      <rect id="Rectangle_2744" data-name="Rectangle 2744" width="149.912" height="686.325" transform="translate(-15328.946 -19192.002)" fill="#ff1b3a" opacity="0.845"/>
    </g>
    <path id="Exclusion_7_1_" d="M202.7,388.76a34.256,34.256,0,0,1-13.456-2.719L40.491,323.44a34.612,34.612,0,0,1-20.9-27.655L.25,135.986a34.512,34.512,0,0,1,13.542-31.709L143.251,6.946A34.9,34.9,0,0,1,164.106,0a34.257,34.257,0,0,1,13.456,2.719L326.275,65.362a34.612,34.612,0,0,1,20.9,27.655l19.384,159.8a34.512,34.512,0,0,1-13.542,31.709l-129.5,97.286A34.87,34.87,0,0,1,202.7,388.76ZM172.415,179.948a3.855,3.855,0,0,0-1.548.3L80.037,218.432a3.948,3.948,0,0,0-2.433,3.625l.086,15.278-.044,13.46a7.57,7.57,0,0,0,4.63,7.085l83.291,35.464a5.81,5.81,0,0,0,2.811.6,7.717,7.717,0,0,0,7.788-7.637v-.128l.044-22.348a3.9,3.9,0,0,0-2.433-3.625l-53.761-22.5L171.426,216.4a8.008,8.008,0,0,0,4.977-7.085l-.044-25.463a3.946,3.946,0,0,0-3.937-3.926Zm25.88-86.415A7.626,7.626,0,0,0,190.506,101v.3l-.057,22.35a3.9,3.9,0,0,0,2.433,3.625l53.827,22.52L195.3,171.1a8.008,8.008,0,0,0-4.975,7.085l.044,25.463a3.966,3.966,0,0,0,4.024,3.926,4.509,4.509,0,0,0,1.515-.3L286.733,169.1a3.948,3.948,0,0,0,2.433-3.625l-.086-15.278.044-13.46a7.571,7.571,0,0,0-4.63-7.085L201.188,94.18a5.91,5.91,0,0,0-2.9-.647Z" transform="translate(419.699 -2999.957)" fill="#ff1b3a"/>
    <g id="Group_600" data-name="Group 600" transform="translate(847.432 -2933.145)">
      <path id="Path_491" data-name="Path 491" d="M100.24,205.416V180.922l62.082-121.86H101.414V30.48H204.3V55.835L141.048,176.79h62.08v28.582H100.24Z" transform="translate(-100.24 27.774)" fill="#ff1b3a"/>
      <path id="Path_492" data-name="Path 492" d="M203.735,141.26h38.2c.173,1.739.347,4.829.445,9.179s.044,8.136-.131,11.225q-1.174,25.972-14.012,37.143-12.861,11.21-41.113,11.225-30.026,0-42.984-11.354c-8.659-7.562-13.443-19.926-14.444-37.023-.173-5.047-.347-11.354-.445-18.967q-.131-11.354-.131-23.754c0-8.267.044-15.923.131-23.015s.26-12.791.445-17.055q1.761-26.5,15.011-37.763,13.247-11.225,41.814-11.225,28.845,0,41.678,11.094,12.791,11.093,14.012,36.153c.174,2.349.3,6.308.3,11.964v18.489c0,6.7-.173,13.051-.565,19.1H168.192c0,6.228.087,12.531.3,18.925.173,6.394.391,13.227.565,20.4.173,5.438,1.653,9.31,4.35,11.659s7.266,3.481,13.705,3.481c5.829,0,9.962-1.174,12.4-3.481s3.828-6.308,4.226-11.964c.173-2.916.3-6.308.3-10.18S203.953,146.918,203.735,141.26ZM186.55,58.772c-6.394,0-10.876,1.132-13.4,3.35s-3.872,5.874-4.09,10.92c-.173,4.655-.347,9.179-.445,13.567-.087,4.35-.131,8.7-.131,12.964h35.548V83.086a95.713,95.713,0,0,0-.3-10.051,15.284,15.284,0,0,0-4.524-10.92C196.6,59.9,192.379,58.772,186.55,58.772Z" transform="translate(-3.477 25.758)" fill="#ff1b3a"/>
      <path id="Path_493" data-name="Path 493" d="M161.82,207.394V32.5h38.764v18.36h7.562a52.491,52.491,0,0,1,13.4-15.569c4.873-3.612,11.746-5.4,20.709-5.4q18.925,0,28.845,10.658t9.92,35.413V207.438H242.567V72.739q0-14.552-16.619-14.575a34.361,34.361,0,0,0-14.706,3.654A21.3,21.3,0,0,0,200.584,71.6V207.429H161.82Z" transform="translate(106.088 25.801)" fill="#ff1b3a"/>
      <path id="Path_494" data-name="Path 494" d="M196.92,47.684V17.1h40.5V47.684Zm.87,202.562V75.354h38.453V250.246Z" transform="translate(223.694 -17.056)" fill="#ff1b3a"/>
      <path id="Path_495" data-name="Path 495" d="M288.892,246.2q-32.041,0-45.9-11.094t-13.834-37.892l-.3-99.418H212.54V68.654h17.186V19.1h40.241l-.87,49.554h32.368V97.8H267.923l.565,104.065c0,6.228,1.479,10.4,4.524,12.531,3,2.131,8.4,3.221,16.185,3.221,2.7,0,5.264-.044,7.562-.131,2.349-.087,4.96-.26,7.876-.445v27.67a48.683,48.683,0,0,1-7.266,1.174C294.808,246.07,291.982,246.2,288.892,246.2Z" transform="translate(276.03 -10.355)" fill="#ff1b3a"/>
      <path id="Path_496" data-name="Path 496" d="M313.215,141.26h38.2c.173,1.739.347,4.829.445,9.179s.042,8.136-.131,11.225q-1.174,25.972-14.012,37.143-12.861,11.21-41.113,11.225-30.026,0-42.984-11.354c-8.659-7.562-13.443-19.926-14.444-37.023-.173-5.047-.347-11.354-.445-18.967q-.131-11.354-.131-23.754c0-8.267.044-15.923.131-23.015s.26-12.791.445-17.055q1.762-26.5,15.008-37.763Q267.429,29.876,296,29.876q28.845,0,41.678,11.094c8.527,7.4,13.227,19.448,14.012,36.153.173,2.349.3,6.308.3,11.964v18.489c0,6.7-.176,13.051-.565,19.1H277.669c0,6.228.087,12.531.3,18.925.173,6.394.391,13.227.565,20.4.173,5.438,1.653,9.31,4.35,11.659s7.266,3.481,13.705,3.481c5.829,0,9.962-1.174,12.4-3.481s3.828-6.308,4.226-11.964c.173-2.916.3-6.308.3-10.18S313.389,146.918,313.215,141.26Zm-17.23-82.488c-6.4,0-10.876,1.132-13.4,3.35s-3.872,5.874-4.09,10.92c-.174,4.655-.347,9.179-.445,13.567-.087,4.35-.131,8.7-.131,12.964h35.544V83.086a95.866,95.866,0,0,0-.3-10.051,15.286,15.286,0,0,0-4.524-10.92C306.08,59.9,301.817,58.772,295.985,58.772Z" transform="translate(363.343 25.758)" fill="#ff1b3a"/>
      <path id="Path_497" data-name="Path 497" d="M271.871,161.659c-.173-5.047-.349-11.354-.445-18.967q-.131-11.354-.131-23.754c0-8.267.044-15.923.131-23.015s.26-12.791.445-17.055q1.761-26.5,15.008-37.763Q300.126,29.88,328.693,29.88T370.242,40.8c8.659,7.266,13.356,19.4,14.139,36.284.173,3.481.26,7.526.131,12.095-.087,4.568-.26,7.526-.445,8.874H345.875c.173-3.307.3-7.526.3-12.66s-.087-9.266-.3-12.4a15.3,15.3,0,0,0-3.915-10.789c-2.447-2.349-6.83-3.481-13.269-3.481-6.394,0-10.876,1.088-13.4,3.221s-3.872,5.829-4.09,11.094c-.391,11.835-.654,22.753-.741,32.63q-.131,14.879,0,29.278t.741,31.062c.173,5.438,1.652,9.31,4.35,11.659s7.266,3.481,13.705,3.481c6.228,0,10.485-1.261,12.833-3.781a17.5,17.5,0,0,0,3.781-11.659c.173-3.089.3-6.57.3-10.353s-.087-8.483-.3-14.139h38.2c.174,1.739.347,4.829.445,9.179s.044,8.136-.131,11.225q-1.174,25.972-14.012,37.143-12.861,11.21-41.113,11.225-30.026,0-42.984-11.354Q273.286,187.348,271.871,161.659Z" transform="translate(472.904 25.763)" fill="#ff1b3a"/>
      <path id="Path_498" data-name="Path 498" d="M304.46,250.281V17.09h39.329V93.747h7a53.521,53.521,0,0,1,13.269-15.569c4.742-3.612,11.7-5.4,20.84-5.4q18.925,0,28.409,10.658t10.049,35.415l.3,131.475H384.6l-.565-134.651a15.975,15.975,0,0,0-3.781-11.094c-2.349-2.349-6.228-3.481-11.659-3.481a31.843,31.843,0,0,0-14.706,3.654,21.327,21.327,0,0,0-10.051,9.786V250.37H304.469Z" transform="translate(584.014 -17.09)" fill="#ff1b3a"/>
    </g>
  </g>
</svg>
